<?xml version="1.0" encoding="UTF-8"?>
<!DOCTYPE svg PUBLIC "-//W3C//DTD SVG 1.1//EN" "http://www.w3.org/Graphics/SVG/1.1/DTD/svg11.dtd">
<!-- Creator: CorelDRAW 2017 -->
<svg xmlns="http://www.w3.org/2000/svg" xml:space="preserve" width="0.383764in" height="0.681472in" version="1.1" style="shape-rendering:geometricPrecision; text-rendering:geometricPrecision; image-rendering:optimizeQuality; fill-rule:evenodd; clip-rule:evenodd"
viewBox="0 0 22.19 39.4"
 xmlns:xlink="http://www.w3.org/1999/xlink">
 <defs>
  <style type="text/css">
   <![CDATA[
    .str1 {stroke:#A2139B;stroke-width:0.4;stroke-miterlimit:2.61313}
    .str0 {stroke:#CE1579;stroke-width:0.4;stroke-miterlimit:2.61313}
    .fil0 {fill:#A2139B}
    .fil1 {fill:#CE1579}
    .fil2 {fill:#E62456}
   ]]>
  </style>
 </defs>
 <g id="Layer_x0020_1">
  <metadata id="CorelCorpID_0Corel-Layer"/>
  <path class="fil0" d="M0.89 24.87c-0.02,-4.5 0.17,-6.92 2.46,-9.69 4.36,-5.28 11.07,-5.29 15.43,0 2.28,2.78 2.48,5.18 2.46,9.69 2.77,-4.38 -0.95,-15.93 -5.11,-17.28 -0.1,2.16 -0.16,3.08 -1.41,3.32 -1.31,-1.41 -0.13,-7.23 -4.43,-10.91 -0.03,0.06 -0.06,0.09 -0.07,0.19l-0.38 1.59c-0.16,0.65 -0.36,1.12 -0.61,1.64 -1.92,4.09 -7.11,7.89 -8.72,13.53 -0.66,2.32 -0.81,6.03 0.38,7.92z"/>
  <path class="fil1 str0" d="M11.1 11.08c5.89,0 10.67,4.78 10.67,10.67 0,3.57 -1.82,6.87 -4.51,8.81 -0.83,0.59 0.83,-3.42 -0.28,-6.72 -1.24,-3.71 -5.21,-6.95 -6.44,-6.96 -1.15,-0 -5.08,3.34 -5.97,6.85 -0.91,3.61 1.87,7.97 0.99,7.37 -2.81,-1.93 -5.23,-5.72 -5.14,-9.36 0.13,-5.88 4.78,-10.67 10.67,-10.67z"/>
  <path class="fil2" d="M8.56 33.73l4.72 0c0.11,0 0.2,0.09 0.2,0.2l0 0.92c0,0.11 -0.09,0.17 -0.2,0.2 -1.64,0.44 -3.05,0.34 -4.72,0 -0.11,-0.02 -0.2,-0.09 -0.2,-0.2l0 -0.92c0,-0.11 0.09,-0.2 0.2,-0.2z"/>
  <path class="fil1" d="M9.31 35.85l3.22 0c0.07,0 0.13,0.09 0.13,0.2l0 0.92c0,0.11 -0.06,0.17 -0.13,0.2 -1.12,0.44 -2.08,0.34 -3.22,0 -0.07,-0.02 -0.13,-0.09 -0.13,-0.2l0 -0.92c0,-0.11 0.06,-0.2 0.13,-0.2z"/>
  <path class="fil0" d="M10.36 37.8l1.12 0c0.03,0 0.05,0.09 0.05,0.2l0 0.92c0,0.11 -0.02,0.17 -0.05,0.2 -0.39,0.44 -0.72,0.34 -1.12,0 -0.03,-0.02 -0.05,-0.09 -0.05,-0.2l0 -0.92c0,-0.11 0.02,-0.2 0.05,-0.2z"/>
  <path class="fil2" d="M11.1 15.92c4.79,0 8.65,5.04 8.67,8.67 0.02,3.63 -2.21,6.74 -5.39,8.03l0 -3.58c0.81,-0.86 1.31,-2.02 1.31,-3.29 0,-2.65 -2.15,-4.8 -4.8,-4.8 -2.65,0 -4.8,2.15 -4.8,4.8 0,1.48 0.67,2.81 1.73,3.69l0 3.19c-3.16,-1.29 -5.39,-4.4 -5.39,-8.03 0,-4.79 3.88,-8.67 8.67,-8.67z"/>
  <rect class="fil2" x="10.01" y="25.77" width="1.82" height="8.81"/>
  <circle class="fil0 str1" cx="10.92" cy="25.62" r="2.01"/>
 </g>
</svg>
